<?xml version="1.0" standalone="no"?>
<!DOCTYPE svg PUBLIC "-//W3C//DTD SVG 20010904//EN"
 "http://www.w3.org/TR/2001/REC-SVG-20010904/DTD/svg10.dtd">
<svg version="1.0" xmlns="http://www.w3.org/2000/svg"
 width="512.000000pt" height="512.000000pt" viewBox="0 0 512.000000 512.000000"
 preserveAspectRatio="xMidYMid meet">
<metadata>
Created by potrace 1.14, written by Peter Selinger 2001-2017
</metadata>
<g transform="translate(0.000000,512.000000) scale(0.100000,-0.100000)"
fill="#000000" stroke="none">
<path d="M664 4482 c-21 -3 -21 -6 -20 -262 1 -198 4 -262 14 -272 10 -10 87
-13 345 -14 183 -1 335 -2 340 -3 4 0 7 -460 7 -1021 l0 -1020 -353 0 -354 0
0 -255 c0 -190 3 -260 13 -272 11 -17 77 -18 1011 -19 549 0 1003 1 1008 3 17
6 14 506 -4 526 -12 15 -49 17 -352 17 l-339 0 -1 23 c-1 32 -1 1945 0 1987
l1 35 350 0 c193 -1 351 2 351 5 1 3 2 119 3 258 2 228 0 254 -15 268 -16 14
-123 16 -1001 17 -541 1 -992 1 -1004 -1z"/>
<path d="M2278 3761 c-3 -13 -2 -1784 1 -1802 1 -3 96 -5 213 -5 190 1 214 -1
235 -17 l23 -18 0 -320 0 -319 -137 -1 c-76 0 -182 0 -235 1 -54 1 -98 -2 -99
-7 0 -4 -1 -142 -2 -307 -2 -287 -1 -299 18 -312 15 -11 78 -14 302 -14 263 0
283 1 284 18 8 150 -4 961 -15 1018 -2 10 -7 57 -11 103 -4 47 -9 94 -11 105
-2 12 -7 50 -10 86 -3 36 -7 76 -9 90 -2 14 -7 50 -10 80 -7 57 -12 98 -20
140 -2 14 -7 50 -10 80 -3 30 -8 62 -10 70 -6 20 -15 77 -21 120 -2 19 -8 58
-14 85 -5 28 -11 66 -14 86 -5 36 -5 36 30 34 20 -2 40 -7 44 -11 5 -5 106
-301 225 -659 118 -357 220 -658 225 -667 6 -10 10 -23 10 -29 0 -11 20 -60
43 -109 11 -21 21 -25 63 -28 l50 -3 77 213 c42 117 86 240 97 273 12 33 30
83 40 110 10 28 35 95 55 150 20 55 40 109 45 120 10 23 22 56 26 70 1 6 23
62 47 125 24 63 68 185 97 270 29 85 57 160 61 166 7 9 31 11 71 5 7 -1 5 -15
-12 -106 -5 -27 -12 -66 -14 -85 -3 -19 -8 -46 -10 -60 -11 -59 -41 -274 -51
-355 -3 -27 -7 -63 -10 -80 -2 -16 -7 -57 -10 -90 -3 -33 -8 -73 -10 -90 -2
-16 -6 -61 -10 -100 -3 -38 -8 -83 -10 -100 -15 -112 -29 -954 -17 -1008 3
-10 13 -22 23 -27 18 -10 567 -15 577 -6 2 3 4 701 4 1551 0 1395 -1 1548 -16
1563 -14 16 -42 18 -307 17 l-292 0 -19 -44 c-10 -24 -25 -57 -32 -75 -51
-112 -208 -541 -220 -599 -3 -12 -14 -53 -26 -92 -42 -136 -100 -372 -116
-474 -3 -18 -7 -41 -9 -50 -1 -9 -6 -36 -10 -61 -11 -68 -20 -80 -60 -78 -19
1 -35 6 -36 12 0 6 -2 20 -4 31 -11 53 -57 282 -60 295 -66 291 -123 473 -247
790 -44 113 -89 228 -100 257 -35 91 -19 87 -353 88 -259 1 -294 -1 -297 -14z"/>
</g>
</svg>
